<?xml version="1.0" encoding="utf-8"?>
<!-- Generator: Adobe Illustrator 25.4.1, SVG Export Plug-In . SVG Version: 6.00 Build 0)  -->
<svg version="1.1" id="Layer_1" xmlns="http://www.w3.org/2000/svg" xmlns:xlink="http://www.w3.org/1999/xlink" x="0px" y="0px"
	 viewBox="0 0 171.2 120.7" style="enable-background:new 0 0 171.2 120.7;" xml:space="preserve">
<style type="text/css">
	.st0{fill:#FFFFFF;}
	.st1{clip-path:url(#SVGID_00000103260619699265677390000013725032831464868482_);}
	.st2{clip-path:url(#SVGID_00000160152975869483130510000009126080233417711537_);}
	.st3{enable-background:new    ;}
	.st4{fill:#647883;}
	.st5{opacity:0.2;}
	.st6{clip-path:url(#SVGID_00000004522274791408423400000010639942321936072882_);}
	.st7{clip-path:url(#SVGID_00000172427940500618337660000008938683317663433913_);}
	.st8{fill:#FF3264;}
	.st9{fill:none;stroke:#647883;stroke-width:1.29;stroke-linecap:round;stroke-linejoin:round;}
</style>
<polygon class="st0" points="46.8,10.5 64.8,4.9 87.1,3 109.2,4.8 125.7,11.7 127.2,63.9 118.1,74.3 87.8,77.8 59.4,75.1 46.6,67.2 
	"/>
<g id="Layer_2_00000097472358834666123530000000402161155677534628_">
	<g id="Layer_1-2">
		<g>
			<defs>
				<rect id="SVGID_1_" width="171.3" height="113.1"/>
			</defs>
			<clipPath id="SVGID_00000175321890123612243800000003293429181756524733_">
				<use xlink:href="#SVGID_1_"  style="overflow:visible;"/>
			</clipPath>
			<g style="clip-path:url(#SVGID_00000175321890123612243800000003293429181756524733_);">
				<g>
					<defs>
						<rect id="SVGID_00000105408183454578322850000003389969107065265028_" width="171.3" height="113.1"/>
					</defs>
					<clipPath id="SVGID_00000039127783313220784310000006655594220786186893_">
						<use xlink:href="#SVGID_00000105408183454578322850000003389969107065265028_"  style="overflow:visible;"/>
					</clipPath>
					<g style="clip-path:url(#SVGID_00000039127783313220784310000006655594220786186893_);">
						<g class="st3">
							<path class="st4" d="M4.7,93.2l7.3,17.6l7.4-17.6h2.2v19.9H20v-8.7l0.1-8.9l-7.4,17.6h-1.3L4.1,95.6l0.1,8.8v8.7H2.5V93.2
								H4.7z"/>
							<path class="st4" d="M35.7,113.1c-0.2-0.5-0.3-1.2-0.3-2.1c-0.6,0.7-1.3,1.3-2.2,1.7s-1.8,0.6-2.8,0.6
								c-1.4,0-2.6-0.4-3.5-1.2c-0.9-0.8-1.3-1.8-1.3-3c0-1.4,0.6-2.6,1.8-3.4c1.2-0.8,2.9-1.3,5-1.3h3v-1.7c0-1.1-0.3-1.9-1-2.5
								c-0.7-0.6-1.6-0.9-2.9-0.9c-1.1,0-2.1,0.3-2.8,0.9c-0.7,0.6-1.1,1.3-1.1,2.1l-1.6,0c0-1.2,0.5-2.2,1.6-3.1s2.4-1.3,4-1.3
								c1.6,0,3,0.4,3.9,1.2c1,0.8,1.4,2,1.5,3.5v7c0,1.4,0.2,2.5,0.5,3.2v0.2H35.7z M30.6,112c1.1,0,2.1-0.3,2.9-0.8
								s1.5-1.2,1.9-2.1v-3.3h-2.9c-1.6,0-2.9,0.3-3.8,0.9c-0.9,0.6-1.4,1.4-1.4,2.4c0,0.8,0.3,1.5,0.9,2.1S29.6,112,30.6,112z"/>
							<path class="st4" d="M48.2,99.7c-0.3-0.1-0.7-0.1-1.1-0.1c-1,0-1.9,0.3-2.6,0.9c-0.7,0.6-1.2,1.4-1.5,2.5v10.2h-1.6V98.3H43
								l0,2.4c0.9-1.8,2.3-2.6,4.2-2.6c0.5,0,0.8,0.1,1.1,0.2L48.2,99.7z"/>
							<path class="st4" d="M59.6,109.4c0-0.8-0.3-1.5-1-2c-0.7-0.5-1.6-0.9-2.9-1.2s-2.3-0.6-3.1-1s-1.3-0.8-1.6-1.3
								c-0.4-0.5-0.5-1.1-0.5-1.9c0-1.2,0.5-2.1,1.5-2.9c1-0.8,2.2-1.1,3.7-1.1c1.6,0,3,0.4,4,1.2s1.5,1.9,1.5,3.2h-1.6
								c0-0.9-0.4-1.6-1.1-2.2s-1.6-0.9-2.7-0.9c-1.1,0-1.9,0.2-2.6,0.7c-0.7,0.5-1,1.1-1,1.9c0,0.7,0.3,1.3,0.8,1.7
								c0.5,0.4,1.5,0.8,3,1.1s2.5,0.7,3.2,1.1c0.7,0.4,1.2,0.8,1.6,1.4c0.3,0.5,0.5,1.2,0.5,2c0,1.2-0.5,2.2-1.5,3
								c-1,0.7-2.3,1.1-3.9,1.1c-1.7,0-3.1-0.4-4.2-1.3c-1.1-0.8-1.6-1.9-1.6-3.2h1.6c0.1,1,0.5,1.7,1.2,2.2
								c0.7,0.5,1.7,0.8,2.9,0.8c1.1,0,2.1-0.3,2.8-0.8C59.3,110.8,59.6,110.1,59.6,109.4z"/>
							<path class="st4" d="M66.6,100.8c0.5-0.9,1.2-1.6,2.1-2.1c0.8-0.5,1.8-0.7,2.7-0.7c1.6,0,2.8,0.4,3.5,1.3
								c0.8,0.9,1.2,2.2,1.2,4v9.7h-1.6v-9.7c0-1.3-0.3-2.3-0.8-3c-0.6-0.6-1.4-1-2.6-1c-1,0-1.9,0.3-2.7,1s-1.4,1.5-1.7,2.6v10.1
								H65v-21h1.6V100.8z"/>
							<path class="st4" d="M81.8,98.3l0.1,2.4c0.5-0.9,1.2-1.6,2.1-2s1.7-0.7,2.7-0.7c2.3,0,3.8,1,4.4,2.9c0.5-0.9,1.2-1.6,2.1-2.1
								c0.9-0.5,1.9-0.7,2.9-0.7c3.2,0,4.8,1.7,4.9,5.2v9.9h-1.6v-9.7c0-1.3-0.3-2.3-0.9-2.9s-1.5-1-2.7-1c-1.2,0-2.2,0.4-3,1.1
								c-0.8,0.7-1.3,1.6-1.4,2.7v9.8h-1.6v-9.9c0-1.3-0.3-2.2-0.9-2.8s-1.5-0.9-2.7-0.9c-1,0-1.9,0.3-2.7,0.9s-1.3,1.5-1.6,2.6
								v10.1h-1.6V98.3H81.8z"/>
							<path class="st4" d="M114.5,113.1c-0.2-0.5-0.3-1.2-0.3-2.1c-0.6,0.7-1.3,1.3-2.2,1.7s-1.8,0.6-2.8,0.6
								c-1.4,0-2.6-0.4-3.5-1.2s-1.3-1.8-1.3-3c0-1.4,0.6-2.6,1.8-3.4s2.9-1.3,5-1.3h3v-1.7c0-1.1-0.3-1.9-1-2.5s-1.6-0.9-2.9-0.9
								c-1.1,0-2.1,0.3-2.8,0.9c-0.7,0.6-1.1,1.3-1.1,2.1l-1.6,0c0-1.2,0.5-2.2,1.6-3.1s2.4-1.3,4-1.3c1.6,0,3,0.4,3.9,1.2
								s1.4,2,1.5,3.5v7c0,1.4,0.2,2.5,0.5,3.2v0.2H114.5z M109.3,112c1.1,0,2.1-0.3,2.9-0.8s1.5-1.2,1.9-2.1v-3.3h-2.9
								c-1.6,0-2.9,0.3-3.8,0.9c-0.9,0.6-1.4,1.4-1.4,2.4c0,0.8,0.3,1.5,0.9,2.1S108.3,112,109.3,112z"/>
							<path class="st4" d="M122,113.1h-1.6v-21h1.6V113.1z"/>
							<path class="st4" d="M128.2,113.1h-1.6v-21h1.6V113.1z"/>
							<path class="st4" d="M131.8,105.5c0-1.4,0.3-2.7,0.8-3.8s1.3-2,2.3-2.7s2.1-1,3.4-1c2,0,3.6,0.7,4.8,2.1
								c1.2,1.4,1.8,3.2,1.8,5.5v0.3c0,1.4-0.3,2.7-0.8,3.9s-1.3,2-2.3,2.6c-1,0.6-2.1,0.9-3.4,0.9c-2,0-3.6-0.7-4.8-2.1
								s-1.8-3.2-1.8-5.5V105.5z M133.4,106c0,1.8,0.5,3.2,1.4,4.4s2.1,1.7,3.6,1.7c1.5,0,2.7-0.6,3.6-1.7s1.4-2.6,1.4-4.5v-0.3
								c0-1.1-0.2-2.2-0.6-3.1c-0.4-0.9-1-1.7-1.8-2.2c-0.8-0.5-1.6-0.8-2.6-0.8c-1.5,0-2.6,0.6-3.6,1.7c-0.9,1.1-1.4,2.6-1.4,4.5
								V106z"/>
							<path class="st4" d="M151.9,109.7l0.2,1.3l0.3-1.3l3.6-11.3h1.4l3.5,11.2l0.4,1.6l0.3-1.4l3-11.3h1.7l-4.3,14.8h-1.4
								l-3.8-11.7l-0.2-0.8l-0.2,0.8l-3.7,11.7h-1.4l-4.3-14.8h1.7L151.9,109.7z"/>
						</g>
						<path class="st4" d="M86,6.2c-24.5,0-36.9,5.2-36.9,8.1v48.6c0,3.8,2.6,7.2,6.3,8.1c20.1,5.2,41.1,5.2,61.2,0.1
							c3.7-1,6.2-4.3,6.2-8.1V14.4c0-1-2.1-3.4-10.1-5.4C105.8,7.2,96.1,6.2,86,6.2 M86.4,81.1c-11,0-21.9-1.4-32.5-4.1
							c-6.5-1.6-11-7.5-11-14.1V14.4C42.9,0.7,78.8,0,86,0s43.1,0.7,43.1,14.4V63c0,6.6-4.5,12.5-10.9,14.1
							C107.8,79.8,97.1,81.1,86.4,81.1"/>
						<g class="st5">
							<g>
								<defs>
									<rect id="SVGID_00000092437224325970303120000000197812720191132318_" x="46.3" y="4.5" width="79.8" height="18.8"/>
								</defs>
								<clipPath id="SVGID_00000080903102233443486020000016941341906763333514_">
									<use xlink:href="#SVGID_00000092437224325970303120000000197812720191132318_"  style="overflow:visible;"/>
								</clipPath>
								<g style="clip-path:url(#SVGID_00000080903102233443486020000016941341906763333514_);">
									<path class="st4" d="M91.7,20.9c-16.8,0-30.4-2.5-30.4-5.7c0-1.4,2.7-2.7,7.1-3.7c-7.9,1.1-13.1,2.8-13.1,4.8
										c0,3.3,14.2,6,31.8,6c13.8,0,25.6-1.6,30-4C111.7,19.8,102.3,20.8,91.7,20.9"/>
								</g>
							</g>
						</g>
						<g class="st5">
							<g>
								<defs>
									<rect id="SVGID_00000044179363321978460850000014683047240291135890_" x="33.2" y="67.9" width="104.1" height="15.6"/>
								</defs>
								<clipPath id="SVGID_00000026133894435512910490000004984486463634715806_">
									<use xlink:href="#SVGID_00000044179363321978460850000014683047240291135890_"  style="overflow:visible;"/>
								</clipPath>
								<g style="clip-path:url(#SVGID_00000026133894435512910490000004984486463634715806_);">
									<path class="st4" d="M128.3,78.7c0,2.1-19.3,3.8-43,3.8s-43-1.7-43-3.8s19.3-3.8,43-3.8S128.3,76.6,128.3,78.7"/>
								</g>
							</g>
						</g>
						<path class="st4" d="M73.4,43.3c0,5.6-2.4,10.1-5.3,10.1s-5.3-4.5-5.3-10.1s2.4-10.1,5.3-10.1S73.4,37.8,73.4,43.3"/>
						<path class="st0" d="M72.2,39.5c0,2.4-1,4.3-2.2,4.3s-2.2-2-2.2-4.3s1-4.3,2.2-4.3S72.2,37.1,72.2,39.5"/>
						<path class="st0" d="M66.9,42.2c0,0.9-0.4,1.6-0.8,1.6s-0.8-0.7-0.8-1.6s0.4-1.6,0.8-1.6S66.9,41.4,66.9,42.2"/>
						<path class="st0" d="M69.4,46.1c0,0.9-0.4,1.6-0.8,1.6s-0.8-0.7-0.8-1.6s0.4-1.6,0.8-1.6S69.4,45.2,69.4,46.1"/>
						<path class="st4" d="M108.7,43.3c0,5.6-2.4,10.1-5.3,10.1s-5.3-4.5-5.3-10.1s2.4-10.1,5.3-10.1S108.7,37.8,108.7,43.3"/>
						<path class="st0" d="M107.6,39.5c0,2.4-1,4.3-2.2,4.3s-2.2-2-2.2-4.3s1-4.3,2.2-4.3S107.6,37.1,107.6,39.5"/>
						<path class="st0" d="M102.3,42.2c0,0.9-0.4,1.6-0.8,1.6s-0.8-0.7-0.8-1.6s0.4-1.6,0.8-1.6S102.3,41.4,102.3,42.2"/>
						<path class="st0" d="M104.7,46.1c0,0.9-0.4,1.6-0.8,1.6s-0.8-0.7-0.8-1.6s0.4-1.6,0.8-1.6S104.7,45.2,104.7,46.1"/>
						<path class="st8" d="M70,54.6c0,1.1-2,2-4.4,2s-4.5-0.9-4.5-2s2-2,4.5-2S70,53.5,70,54.6"/>
						<path class="st8" d="M110.4,54.6c0,1.1-2,2-4.4,2s-4.4-0.9-4.4-2s2-2,4.4-2S110.4,53.5,110.4,54.6"/>
						<path class="st9" d="M103.8,28c0,0,4.4-0.8,5.5,3.3 M67,28c0,0-4.4-0.8-5.5,3.3"/>
						<path class="st0" d="M86.2,65.5c-5.1,0-9.2-3.6-9.2-8c0-1.8,0.7-2.7,2.3-2.7c0.9,0.1,1.8,0.2,2.6,0.4c1.4,0.4,2.9,0.6,4.3,0.6
							c1.5,0,2.9-0.3,4.3-0.6c0.8-0.2,1.7-0.4,2.6-0.4c1.5,0,2.3,0.9,2.3,2.7C95.3,61.9,91.2,65.5,86.2,65.5"/>
						<path class="st4" d="M93.1,54.2L93.1,54.2c-0.9,0.1-1.8,0.2-2.7,0.5c-1.4,0.4-2.8,0.6-4.2,0.6c-1.4,0-2.8-0.3-4.2-0.6
							c-0.9-0.2-1.8-0.4-2.7-0.5c-1.1,0-2.8,0.4-2.8,3.3c0,4.7,4.4,8.6,9.8,8.6s9.7-3.8,9.7-8.6C95.9,54.6,94.1,54.2,93.1,54.2
							 M93.1,55.3c1.1,0,1.7,0.5,1.7,2.2c0,4.1-3.9,7.4-8.6,7.4s-8.6-3.3-8.6-7.4c0-1.7,0.6-2.2,1.7-2.2c1.6,0,4.1,1.1,6.9,1.1
							S91.5,55.3,93.1,55.3"/>
						<path class="st8" d="M86.2,65.5c-4.7,0-8.6-3-9.1-7c0-0.2,0.1-0.4,0.2-0.5c0.2-0.1,0.4-0.1,0.6,0c2.5,1.2,5.2,1.8,8,1.7
							c3,0.1,5.9-0.6,8.5-2c0.1-0.1,0.2-0.1,0.3-0.1c0.1,0,0.2,0,0.3,0.1c0.2,0.1,0.3,0.3,0.3,0.5C95,62.2,91,65.5,86.2,65.5"/>
						<path class="st4" d="M94.8,56.9c-0.2,0-0.4,0.1-0.6,0.2C92.3,58.3,89.3,59,86,59c-2.7,0.1-5.3-0.5-7.8-1.6
							c-0.2-0.1-0.4-0.1-0.6-0.1c-0.2,0-0.5,0.1-0.6,0.2c-0.4,0.2-0.5,0.7-0.5,1.1c0.6,4.3,4.7,7.5,9.7,7.5s9.3-3.5,9.7-7.9
							c0-0.4-0.2-0.9-0.6-1.1C95.2,57,95,56.9,94.8,56.9 M94.8,58.1c-0.3,3.8-4,6.9-8.6,6.9s-8-2.9-8.6-6.6c2.6,1.2,5.4,1.8,8.3,1.7
							C89.1,60.2,92.1,59.5,94.8,58.1"/>
					</g>
				</g>
			</g>
		</g>
	</g>
</g>
</svg>
