<svg xmlns="http://www.w3.org/2000/svg" xmlns:xlink="http://www.w3.org/1999/xlink" viewBox="0 0 171.21 120.71"><defs><style>.cls-1,.cls-10{fill:none;}.cls-2{clip-path:url(#clip-path);}.cls-3{font-size:28px;font-family:Roboto-Light, Roboto;font-weight:300;}.cls-3,.cls-4{fill:#647883;}.cls-5{opacity:0.2;}.cls-6{clip-path:url(#clip-path-3);}.cls-7{clip-path:url(#clip-path-4);}.cls-8{fill:#fff;}.cls-9{fill:#ff3264;}.cls-10{stroke:#647883;stroke-linecap:round;stroke-linejoin:round;stroke-width:1.29px;}</style><clipPath id="clip-path" transform="translate(0 0)"><rect class="cls-1" width="171.34" height="113.13"/></clipPath><clipPath id="clip-path-3" transform="translate(0 0)"><rect class="cls-1" x="46.3" y="4.54" width="79.79" height="18.76"/></clipPath><clipPath id="clip-path-4" transform="translate(0 0)"><rect class="cls-1" x="33.23" y="67.93" width="104.07" height="15.58"/></clipPath></defs><g id="Layer_2" data-name="Layer 2"><g id="Layer_1-2" data-name="Layer 1"><g class="cls-2"><g class="cls-2"><text class="cls-3" transform="translate(0 113.13)">Marshmallow</text><path class="cls-4" d="M86,6.24c-24.55,0-36.87,5.2-36.87,8.11V62.91A8.29,8.29,0,0,0,55.4,71a123.54,123.54,0,0,0,61.24.07A8.32,8.32,0,0,0,122.87,63V14.35c0-1-2.12-3.39-10.14-5.39C105.82,7.23,96.07,6.24,86,6.24m.4,74.88A133.5,133.5,0,0,1,53.89,77a14.53,14.53,0,0,1-11-14.13V14.35C42.87.69,78.79,0,86,0s43.12.69,43.12,14.35V63A14.54,14.54,0,0,1,118.18,77.1a127.79,127.79,0,0,1-31.79,4" transform="translate(0 0)"/><g class="cls-5"><g class="cls-6"><path class="cls-4" d="M91.7,20.89c-16.81,0-30.44-2.55-30.44-5.69,0-1.4,2.68-2.67,7.11-3.66-7.92,1.08-13.07,2.83-13.07,4.81,0,3.28,14.24,5.95,31.81,5.95,13.83,0,25.6-1.65,30-4-5.45,1.54-14.79,2.55-25.39,2.55" transform="translate(0 0)"/></g></g><g class="cls-5"><g class="cls-7"><path class="cls-4" d="M128.3,78.72c0,2.09-19.26,3.79-43,3.79s-43-1.7-43-3.79,19.27-3.79,43-3.79,43,1.69,43,3.79" transform="translate(0 0)"/></g></g><path class="cls-4" d="M73.42,43.34c0,5.58-2.38,10.1-5.31,10.1s-5.31-4.52-5.31-10.1,2.38-10.11,5.31-10.11,5.31,4.53,5.31,10.11" transform="translate(0 0)"/><path class="cls-8" d="M72.22,39.47c0,2.4-1,4.35-2.23,4.35s-2.22-2-2.22-4.35,1-4.35,2.22-4.35,2.23,1.94,2.23,4.35" transform="translate(0 0)"/><path class="cls-8" d="M66.93,42.24c0,.87-.36,1.58-.8,1.58s-.81-.71-.81-1.58.36-1.57.81-1.57.8.7.8,1.57" transform="translate(0 0)"/><path class="cls-8" d="M69.38,46.07c0,.87-.36,1.58-.81,1.58s-.8-.71-.8-1.58.36-1.57.8-1.57.81.71.81,1.57" transform="translate(0 0)"/><path class="cls-4" d="M108.74,43.34c0,5.58-2.37,10.1-5.3,10.1s-5.31-4.52-5.31-10.1,2.37-10.11,5.31-10.11,5.3,4.53,5.3,10.11" transform="translate(0 0)"/><path class="cls-8" d="M107.55,39.47c0,2.4-1,4.35-2.23,4.35s-2.23-2-2.23-4.35,1-4.35,2.23-4.35,2.23,1.94,2.23,4.35" transform="translate(0 0)"/><path class="cls-8" d="M102.26,42.24c0,.87-.36,1.58-.81,1.58s-.8-.71-.8-1.58.36-1.57.8-1.57.81.7.81,1.57" transform="translate(0 0)"/><path class="cls-8" d="M104.7,46.07c0,.87-.36,1.58-.8,1.58s-.81-.71-.81-1.58.36-1.57.81-1.57.8.71.8,1.57" transform="translate(0 0)"/><path class="cls-9" d="M70,54.64c0,1.08-2,2-4.45,2s-4.46-.87-4.46-2,2-2,4.46-2,4.45.88,4.45,2" transform="translate(0 0)"/><path class="cls-9" d="M110.45,54.64c0,1.08-2,2-4.45,2s-4.45-.87-4.45-2,2-2,4.45-2,4.45.88,4.45,2" transform="translate(0 0)"/><path class="cls-10" d="M103.81,28s4.39-.84,5.49,3.32M67,28s-4.39-.84-5.49,3.32" transform="translate(0 0)"/><path class="cls-8" d="M86.17,65.48c-5.06,0-9.18-3.59-9.18-8,0-1.84.74-2.73,2.27-2.73a12.49,12.49,0,0,1,2.6.43,18.86,18.86,0,0,0,4.31.63,18.86,18.86,0,0,0,4.3-.63,12.6,12.6,0,0,1,2.6-.43c1.53,0,2.27.89,2.27,2.73,0,4.41-4.11,8-9.17,8" transform="translate(0 0)"/><path class="cls-4" d="M93.07,54.18h0a12.87,12.87,0,0,0-2.73.45,18.52,18.52,0,0,1-4.17.62A18.61,18.61,0,0,1,82,54.63a12.77,12.77,0,0,0-2.73-.45c-1.06,0-2.84.43-2.84,3.3,0,4.72,4.37,8.57,9.75,8.57s9.74-3.85,9.74-8.57c0-2.87-1.78-3.3-2.84-3.3m0,1.14c1.07,0,1.71.49,1.71,2.16,0,4.1-3.86,7.43-8.61,7.43s-8.61-3.33-8.61-7.43c0-1.67.63-2.16,1.7-2.16,1.57,0,4.08,1.06,6.91,1.06s5.33-1.06,6.9-1.06" transform="translate(0 0)"/><path class="cls-9" d="M86.19,65.48c-4.65,0-8.57-3-9.11-7.05a.58.58,0,0,1,.24-.55.58.58,0,0,1,.6,0,17.35,17.35,0,0,0,8,1.7,16.55,16.55,0,0,0,8.52-2,.56.56,0,0,1,.31-.09.6.6,0,0,1,.29.08.56.56,0,0,1,.27.54C95,62.23,91,65.48,86.19,65.48" transform="translate(0 0)"/><path class="cls-4" d="M94.78,56.9a1.11,1.11,0,0,0-.63.19C92.34,58.27,89.27,59,86,59a16.77,16.77,0,0,1-7.76-1.63,1.18,1.18,0,0,0-.55-.14,1.15,1.15,0,0,0-.64.2,1.13,1.13,0,0,0-.48,1.09c.58,4.3,4.74,7.55,9.67,7.55s9.34-3.48,9.72-7.91a1.14,1.14,0,0,0-.55-1.08,1.1,1.1,0,0,0-.58-.16m0,1.14c-.34,3.84-4,6.87-8.59,6.87s-8-2.87-8.55-6.56A17.94,17.94,0,0,0,86,60.11,17,17,0,0,0,94.78,58" transform="translate(0 0)"/></g></g></g></g></svg>